<svg xmlns="http://www.w3.org/2000/svg" width="300" height="100" viewBox="0,0,300,100"><rect width="100%" height="100%" fill="#ffffff"/><circle cx="128" cy="71" r="1" fill="#111"/><circle cx="162" cy="88" r="1" fill="#222"/><circle cx="51" cy="73" r="1" fill="#111"/><circle cx="260" cy="74" r="1" fill="#111"/><circle cx="187" cy="83" r="1" fill="#888"/><circle cx="179" cy="53" r="1" fill="#222"/><circle cx="239" cy="50" r="1" fill="#222"/><circle cx="224" cy="95" r="1" fill="#666"/><circle cx="62" cy="97" r="1" fill="#222"/><circle cx="287" cy="14" r="1" fill="#888"/><circle cx="286" cy="37" r="1" fill="#555"/><circle cx="264" cy="47" r="1" fill="#333"/><circle cx="288" cy="53" r="1" fill="#333"/><circle cx="281" cy="51" r="1" fill="#666"/><circle cx="209" cy="31" r="1" fill="#333"/><circle cx="243" cy="19" r="1" fill="#222"/><circle cx="141" cy="42" r="1" fill="#111"/><circle cx="298" cy="79" r="1" fill="#333"/><circle cx="30" cy="40" r="1" fill="#666"/><circle cx="134" cy="91" r="1" fill="#666"/><circle cx="196" cy="82" r="1" fill="#777"/><circle cx="103" cy="64" r="1" fill="#888"/><circle cx="172" cy="74" r="1" fill="#333"/><circle cx="143" cy="94" r="1" fill="#888"/><circle cx="12" cy="15" r="1" fill="#555"/><circle cx="97" cy="82" r="1" fill="#666"/><circle cx="15" cy="74" r="1" fill="#666"/><circle cx="182" cy="3" r="1" fill="#333"/><circle cx="67" cy="40" r="1" fill="#777"/><circle cx="135" cy="70" r="1" fill="#888"/><circle cx="286" cy="90" r="1" fill="#555"/><circle cx="222" cy="95" r="1" fill="#555"/><circle cx="263" cy="57" r="1" fill="#555"/><circle cx="158" cy="70" r="1" fill="#111"/><circle cx="134" cy="91" r="1" fill="#777"/><circle cx="11" cy="10" r="1" fill="#333"/><circle cx="70" cy="37" r="1" fill="#444"/><circle cx="117" cy="42" r="1" fill="#444"/><circle cx="37" cy="12" r="1" fill="#777"/><circle cx="161" cy="50" r="1" fill="#333"/><circle cx="88" cy="79" r="1" fill="#666"/><circle cx="262" cy="15" r="1" fill="#333"/><circle cx="164" cy="37" r="1" fill="#222"/><circle cx="242" cy="44" r="1" fill="#222"/><circle cx="178" cy="4" r="1" fill="#666"/><circle cx="182" cy="90" r="1" fill="#222"/><circle cx="286" cy="22" r="1" fill="#666"/><circle cx="103" cy="60" r="1" fill="#666"/><circle cx="252" cy="86" r="1" fill="#777"/><circle cx="118" cy="9" r="1" fill="#666"/><circle cx="3" cy="76" r="1" fill="#555"/><circle cx="233" cy="43" r="1" fill="#222"/><circle cx="132" cy="51" r="1" fill="#777"/><circle cx="165" cy="96" r="1" fill="#333"/><circle cx="132" cy="19" r="1" fill="#777"/><circle cx="5" cy="58" r="1" fill="#222"/><circle cx="11" cy="71" r="1" fill="#333"/><circle cx="136" cy="4" r="1" fill="#444"/><circle cx="45" cy="22" r="1" fill="#333"/><circle cx="64" cy="39" r="1" fill="#777"/><circle cx="236" cy="93" r="1" fill="#111"/><circle cx="78" cy="96" r="1" fill="#444"/><circle cx="83" cy="42" r="1" fill="#666"/><circle cx="218" cy="64" r="1" fill="#222"/><circle cx="93" cy="78" r="1" fill="#555"/><circle cx="204" cy="95" r="1" fill="#111"/><circle cx="209" cy="40" r="1" fill="#666"/><circle cx="118" cy="33" r="1" fill="#333"/><circle cx="130" cy="67" r="1" fill="#222"/><circle cx="267" cy="62" r="1" fill="#444"/><circle cx="147" cy="50" r="1" fill="#222"/><circle cx="240" cy="28" r="1" fill="#666"/><circle cx="23" cy="56" r="1" fill="#777"/><circle cx="248" cy="97" r="1" fill="#444"/><circle cx="229" cy="17" r="1" fill="#444"/><circle cx="46" cy="53" r="1" fill="#444"/><circle cx="131" cy="39" r="1" fill="#444"/><circle cx="38" cy="73" r="1" fill="#333"/><circle cx="45" cy="67" r="1" fill="#444"/><circle cx="164" cy="43" r="1" fill="#666"/><circle cx="35" cy="5" r="1" fill="#222"/><circle cx="116" cy="80" r="1" fill="#222"/><circle cx="66" cy="66" r="1" fill="#333"/><circle cx="178" cy="94" r="1" fill="#666"/><circle cx="207" cy="66" r="1" fill="#333"/><circle cx="212" cy="81" r="1" fill="#777"/><circle cx="198" cy="47" r="1" fill="#555"/><circle cx="191" cy="77" r="1" fill="#555"/><circle cx="204" cy="80" r="1" fill="#333"/><circle cx="111" cy="80" r="1" fill="#555"/><circle cx="70" cy="45" r="1" fill="#222"/><circle cx="68" cy="65" r="1" fill="#222"/><circle cx="112" cy="4" r="1" fill="#444"/><circle cx="297" cy="42" r="1" fill="#777"/><circle cx="12" cy="32" r="1" fill="#444"/><circle cx="207" cy="60" r="1" fill="#222"/><circle cx="291" cy="83" r="1" fill="#777"/><circle cx="289" cy="74" r="1" fill="#111"/><circle cx="93" cy="26" r="1" fill="#111"/><circle cx="120" cy="74" r="1" fill="#444"/><circle cx="283" cy="48" r="1" fill="#777"/><circle cx="116" cy="13" r="1" fill="#666"/><circle cx="132" cy="25" r="1" fill="#555"/><circle cx="133" cy="90" r="1" fill="#111"/><circle cx="295" cy="77" r="1" fill="#333"/><circle cx="24" cy="50" r="1" fill="#888"/><circle cx="208" cy="84" r="1" fill="#222"/><circle cx="31" cy="77" r="1" fill="#555"/><circle cx="12" cy="8" r="1" fill="#333"/><circle cx="189" cy="4" r="1" fill="#111"/><circle cx="4" cy="83" r="1" fill="#888"/><circle cx="132" cy="30" r="1" fill="#555"/><circle cx="63" cy="4" r="1" fill="#777"/><circle cx="145" cy="69" r="1" fill="#777"/><circle cx="101" cy="16" r="1" fill="#111"/><circle cx="143" cy="48" r="1" fill="#222"/><circle cx="214" cy="45" r="1" fill="#111"/><circle cx="96" cy="5" r="1" fill="#333"/><circle cx="248" cy="46" r="1" fill="#888"/><circle cx="295" cy="87" r="1" fill="#555"/><circle cx="229" cy="44" r="1" fill="#222"/><circle cx="146" cy="4" r="1" fill="#555"/><circle cx="270" cy="94" r="1" fill="#444"/><circle cx="252" cy="27" r="1" fill="#666"/><circle cx="284" cy="8" r="1" fill="#444"/><circle cx="6" cy="38" r="1" fill="#555"/><circle cx="20" cy="33" r="1" fill="#444"/><circle cx="197" cy="34" r="1" fill="#777"/><circle cx="88" cy="63" r="1" fill="#555"/><circle cx="43" cy="90" r="1" fill="#222"/><circle cx="118" cy="54" r="1" fill="#222"/><circle cx="96" cy="40" r="1" fill="#777"/><circle cx="206" cy="51" r="1" fill="#555"/><circle cx="54" cy="94" r="1" fill="#333"/><circle cx="85" cy="38" r="1" fill="#222"/><circle cx="170" cy="17" r="1" fill="#888"/><circle cx="260" cy="89" r="1" fill="#666"/><circle cx="271" cy="21" r="1" fill="#555"/><circle cx="1" cy="50" r="1" fill="#222"/><circle cx="269" cy="89" r="1" fill="#666"/><circle cx="92" cy="15" r="1" fill="#222"/><circle cx="262" cy="7" r="1" fill="#555"/><circle cx="128" cy="94" r="1" fill="#444"/><circle cx="259" cy="82" r="1" fill="#888"/><circle cx="235" cy="3" r="1" fill="#777"/><circle cx="7" cy="56" r="1" fill="#222"/><circle cx="235" cy="15" r="1" fill="#333"/><circle cx="289" cy="26" r="1" fill="#777"/><circle cx="239" cy="1" r="1" fill="#555"/><circle cx="241" cy="88" r="1" fill="#555"/><circle cx="295" cy="91" r="1" fill="#444"/><circle cx="11" cy="86" r="1" fill="#555"/><circle cx="18" cy="31" r="1" fill="#444"/><circle cx="166" cy="56" r="1" fill="#555"/><circle cx="10" cy="86" r="1" fill="#555"/><circle cx="39" cy="71" r="1" fill="#222"/><circle cx="192" cy="100" r="1" fill="#111"/><circle cx="256" cy="71" r="1" fill="#777"/><circle cx="171" cy="75" r="1" fill="#111"/><circle cx="292" cy="79" r="1" fill="#333"/><circle cx="260" cy="18" r="1" fill="#222"/><circle cx="160" cy="97" r="1" fill="#777"/><circle cx="140" cy="17" r="1" fill="#111"/><circle cx="241" cy="46" r="1" fill="#444"/><circle cx="259" cy="70" r="1" fill="#444"/><circle cx="206" cy="52" r="1" fill="#777"/><circle cx="87" cy="62" r="1" fill="#333"/><circle cx="245" cy="52" r="1" fill="#666"/><circle cx="154" cy="73" r="1" fill="#888"/><circle cx="42" cy="54" r="1" fill="#666"/><circle cx="96" cy="96" r="1" fill="#222"/><circle cx="74" cy="20" r="1" fill="#111"/><circle cx="122" cy="42" r="1" fill="#222"/><circle cx="80" cy="25" r="1" fill="#111"/><circle cx="34" cy="90" r="1" fill="#222"/><circle cx="151" cy="69" r="1" fill="#333"/><circle cx="273" cy="35" r="1" fill="#666"/><circle cx="300" cy="77" r="1" fill="#666"/><circle cx="218" cy="87" r="1" fill="#666"/><circle cx="68" cy="25" r="1" fill="#111"/><circle cx="65" cy="9" r="1" fill="#111"/><circle cx="133" cy="90" r="1" fill="#555"/><circle cx="12" cy="29" r="1" fill="#555"/><circle cx="35" cy="24" r="1" fill="#444"/><circle cx="95" cy="20" r="1" fill="#333"/><circle cx="239" cy="11" r="1" fill="#777"/><circle cx="146" cy="87" r="1" fill="#555"/><circle cx="73" cy="90" r="1" fill="#555"/><circle cx="45" cy="7" r="1" fill="#777"/><circle cx="257" cy="15" r="1" fill="#555"/><circle cx="115" cy="25" r="1" fill="#777"/><circle cx="205" cy="80" r="1" fill="#222"/><circle cx="207" cy="42" r="1" fill="#777"/><circle cx="188" cy="62" r="1" fill="#888"/><circle cx="144" cy="71" r="1" fill="#444"/><circle cx="223" cy="91" r="1" fill="#555"/><circle cx="207" cy="45" r="1" fill="#555"/><circle cx="195" cy="74" r="1" fill="#333"/><circle cx="104" cy="53" r="1" fill="#333"/><circle cx="166" cy="5" r="1" fill="#111"/><circle cx="192" cy="12" r="1" fill="#222"/><circle cx="171" cy="5" r="1" fill="#333"/><circle cx="26" cy="56" r="1" fill="#222"/><circle cx="235" cy="27" r="1" fill="#333"/><circle cx="47" cy="29" r="1" fill="#444"/><circle cx="196" cy="57" r="1" fill="#222"/><circle cx="105" cy="86" r="1" fill="#777"/><circle cx="192" cy="96" r="1" fill="#222"/><circle cx="33" cy="52" r="1" fill="#666"/><circle cx="11" cy="34" r="1" fill="#555"/><circle cx="221" cy="50" r="1" fill="#555"/><circle cx="297" cy="41" r="1" fill="#555"/><circle cx="290" cy="2" r="1" fill="#222"/><circle cx="21" cy="94" r="1" fill="#444"/><circle cx="15" cy="68" r="1" fill="#777"/><circle cx="22" cy="45" r="1" fill="#777"/><circle cx="295" cy="96" r="1" fill="#555"/><circle cx="103" cy="18" r="1" fill="#444"/><circle cx="21" cy="63" r="1" fill="#555"/><circle cx="86" cy="57" r="1" fill="#888"/><circle cx="260" cy="80" r="1" fill="#333"/><circle cx="40" cy="72" r="1" fill="#777"/><circle cx="188" cy="11" r="1" fill="#333"/><circle cx="94" cy="35" r="1" fill="#222"/><circle cx="23" cy="71" r="1" fill="#444"/><circle cx="65" cy="38" r="1" fill="#444"/><circle cx="223" cy="22" r="1" fill="#444"/><circle cx="204" cy="23" r="1" fill="#222"/><circle cx="169" cy="28" r="1" fill="#777"/><circle cx="87" cy="35" r="1" fill="#222"/><circle cx="154" cy="28" r="1" fill="#333"/><circle cx="151" cy="33" r="1" fill="#777"/><circle cx="291" cy="76" r="1" fill="#555"/><circle cx="34" cy="80" r="1" fill="#777"/><circle cx="205" cy="93" r="1" fill="#888"/><circle cx="252" cy="48" r="1" fill="#666"/><circle cx="66" cy="82" r="1" fill="#777"/><circle cx="148" cy="27" r="1" fill="#222"/><circle cx="49" cy="77" r="1" fill="#777"/><circle cx="290" cy="73" r="1" fill="#222"/><circle cx="257" cy="57" r="1" fill="#111"/><circle cx="296" cy="65" r="1" fill="#444"/><circle cx="292" cy="86" r="1" fill="#555"/><circle cx="58" cy="68" r="1" fill="#777"/><circle cx="84" cy="10" r="1" fill="#555"/><circle cx="72" cy="37" r="1" fill="#222"/><circle cx="126" cy="86" r="1" fill="#111"/><circle cx="279" cy="60" r="1" fill="#333"/><circle cx="77" cy="52" r="1" fill="#555"/><circle cx="206" cy="56" r="1" fill="#222"/><circle cx="131" cy="17" r="1" fill="#444"/><circle cx="280" cy="21" r="1" fill="#333"/><circle cx="158" cy="52" r="1" fill="#666"/><circle cx="158" cy="66" r="1" fill="#666"/><circle cx="172" cy="68" r="1" fill="#888"/><circle cx="153" cy="74" r="1" fill="#444"/><circle cx="167" cy="80" r="1" fill="#555"/><circle cx="1" cy="47" r="1" fill="#777"/><circle cx="233" cy="9" r="1" fill="#111"/><path d="M6 12 C135 74,143 81,293 58" stroke="#333" fill="none"/><circle cx="35" cy="99" r="1" fill="#666"/><circle cx="125" cy="14" r="1" fill="#222"/><circle cx="253" cy="63" r="1" fill="#777"/><circle cx="116" cy="10" r="1" fill="#666"/><circle cx="161" cy="52" r="1" fill="#222"/><circle cx="54" cy="17" r="1" fill="#111"/><circle cx="72" cy="37" r="1" fill="#222"/><circle cx="3" cy="29" r="1" fill="#444"/><circle cx="207" cy="16" r="1" fill="#666"/><circle cx="32" cy="18" r="1" fill="#222"/><circle cx="124" cy="83" r="1" fill="#333"/><circle cx="176" cy="96" r="1" fill="#444"/><circle cx="170" cy="71" r="1" fill="#666"/><circle cx="234" cy="24" r="1" fill="#777"/><circle cx="122" cy="20" r="1" fill="#555"/><circle cx="195" cy="22" r="1" fill="#555"/><circle cx="78" cy="77" r="1" fill="#333"/><circle cx="156" cy="6" r="1" fill="#666"/><circle cx="279" cy="2" r="1" fill="#222"/><circle cx="108" cy="79" r="1" fill="#888"/><circle cx="264" cy="60" r="1" fill="#111"/><circle cx="165" cy="64" r="1" fill="#888"/><circle cx="142" cy="46" r="1" fill="#333"/><circle cx="159" cy="15" r="1" fill="#444"/><circle cx="40" cy="56" r="1" fill="#444"/><circle cx="229" cy="80" r="1" fill="#222"/><circle cx="57" cy="65" r="1" fill="#777"/><circle cx="243" cy="58" r="1" fill="#444"/><circle cx="164" cy="19" r="1" fill="#666"/><circle cx="56" cy="1" r="1" fill="#333"/><circle cx="184" cy="2" r="1" fill="#444"/><circle cx="186" cy="31" r="1" fill="#666"/><circle cx="144" cy="37" r="1" fill="#555"/><circle cx="271" cy="63" r="1" fill="#333"/><circle cx="181" cy="65" r="1" fill="#444"/><circle cx="203" cy="39" r="1" fill="#444"/><circle cx="150" cy="5" r="1" fill="#444"/><circle cx="261" cy="15" r="1" fill="#888"/><circle cx="29" cy="78" r="1" fill="#222"/><circle cx="279" cy="94" r="1" fill="#888"/><circle cx="83" cy="19" r="1" fill="#777"/><circle cx="2" cy="77" r="1" fill="#888"/><circle cx="48" cy="9" r="1" fill="#666"/><circle cx="72" cy="96" r="1" fill="#222"/><circle cx="3" cy="70" r="1" fill="#666"/><circle cx="70" cy="90" r="1" fill="#666"/><circle cx="98" cy="57" r="1" fill="#666"/><circle cx="213" cy="37" r="1" fill="#444"/><circle cx="197" cy="19" r="1" fill="#777"/><circle cx="60" cy="85" r="1" fill="#888"/><circle cx="221" cy="37" r="1" fill="#888"/><circle cx="78" cy="85" r="1" fill="#111"/><circle cx="295" cy="56" r="1" fill="#888"/><circle cx="278" cy="59" r="1" fill="#777"/><circle cx="252" cy="99" r="1" fill="#333"/><circle cx="153" cy="51" r="1" fill="#888"/><circle cx="245" cy="55" r="1" fill="#444"/><circle cx="208" cy="32" r="1" fill="#111"/><circle cx="3" cy="37" r="1" fill="#444"/><circle cx="161" cy="76" r="1" fill="#444"/><circle cx="193" cy="44" r="1" fill="#666"/><circle cx="69" cy="26" r="1" fill="#333"/><circle cx="120" cy="45" r="1" fill="#444"/><circle cx="120" cy="93" r="1" fill="#222"/><circle cx="87" cy="49" r="1" fill="#666"/><circle cx="184" cy="9" r="1" fill="#888"/><circle cx="231" cy="73" r="1" fill="#888"/><circle cx="15" cy="15" r="1" fill="#111"/><circle cx="158" cy="98" r="1" fill="#222"/><circle cx="119" cy="74" r="1" fill="#666"/><circle cx="85" cy="98" r="1" fill="#555"/><circle cx="131" cy="92" r="1" fill="#666"/><circle cx="119" cy="61" r="1" fill="#777"/><circle cx="17" cy="7" r="1" fill="#444"/><circle cx="23" cy="10" r="1" fill="#111"/><circle cx="97" cy="65" r="1" fill="#333"/><circle cx="253" cy="74" r="1" fill="#666"/><circle cx="177" cy="89" r="1" fill="#666"/><circle cx="25" cy="28" r="1" fill="#777"/><circle cx="284" cy="12" r="1" fill="#777"/><circle cx="237" cy="91" r="1" fill="#111"/><circle cx="1" cy="2" r="1" fill="#444"/><circle cx="133" cy="90" r="1" fill="#333"/><circle cx="214" cy="9" r="1" fill="#777"/><circle cx="264" cy="69" r="1" fill="#555"/><path d="M2 99 C137 24,133 9,289 6" stroke="#111" fill="none"/><circle cx="234" cy="70" r="1" fill="#111"/><circle cx="31" cy="32" r="1" fill="#777"/><circle cx="248" cy="53" r="1" fill="#444"/><circle cx="194" cy="37" r="1" fill="#444"/><circle cx="256" cy="98" r="1" fill="#444"/><circle cx="224" cy="71" r="1" fill="#666"/><path d="M12 76 C160 96,162 63,295 78" stroke="#333" fill="none"/><circle cx="250" cy="80" r="1" fill="#888"/><circle cx="261" cy="93" r="1" fill="#222"/><circle cx="280" cy="10" r="1" fill="#888"/><circle cx="55" cy="55" r="1" fill="#111"/><circle cx="27" cy="93" r="1" fill="#555"/><circle cx="126" cy="14" r="1" fill="#222"/><circle cx="81" cy="77" r="1" fill="#666"/><circle cx="188" cy="44" r="1" fill="#888"/><circle cx="16" cy="71" r="1" fill="#555"/><circle cx="75" cy="38" r="1" fill="#666"/><circle cx="129" cy="20" r="1" fill="#444"/><circle cx="58" cy="21" r="1" fill="#333"/><circle cx="139" cy="75" r="1" fill="#111"/><circle cx="173" cy="93" r="1" fill="#333"/><circle cx="94" cy="95" r="1" fill="#555"/><circle cx="140" cy="10" r="1" fill="#888"/><path fill="#000000" d="M241.65 11.38L241.65 11.38L245.11 11.38Q261.23 15.92 261.23 23.88L261.23 23.88L261.23 82.18L258.93 84.28L255.47 84.28L253.17 82.18L253.17 42.63L252.00 42.63Q244.09 47.80 237.06 47.80L237.06 47.80L235.89 47.80Q214.01 47.80 214.01 34.28L214.01 34.28L214.01 32.23Q214.01 23.14 226.66 16.60L226.66 16.60L232.42 16.60Q233.35 11.38 241.65 11.38ZM220.94 34.28L220.94 35.35Q226.12 41.60 231.30 41.60L231.30 41.60L232.42 41.60Q252.00 39.16 252.00 28.03L252.00 28.03L252.00 24.90Q247.46 18.75 243.94 17.63L243.94 17.63Q220.94 25.83 220.94 34.28L220.94 34.28Z"/><circle cx="121" cy="30" r="1" fill="#111"/><path d="M13 71 C152 75,168 35,284 65" stroke="#888" fill="none"/><circle cx="271" cy="79" r="1" fill="#555"/><circle cx="33" cy="25" r="1" fill="#444"/><circle cx="214" cy="34" r="1" fill="#444"/><circle cx="38" cy="21" r="1" fill="#333"/><circle cx="297" cy="92" r="1" fill="#333"/><circle cx="32" cy="69" r="1" fill="#444"/><circle cx="209" cy="61" r="1" fill="#444"/><circle cx="295" cy="17" r="1" fill="#777"/><circle cx="172" cy="59" r="1" fill="#666"/><circle cx="62" cy="88" r="1" fill="#444"/><circle cx="214" cy="67" r="1" fill="#777"/><circle cx="5" cy="23" r="1" fill="#777"/><path d="M18 84 C143 40,138 33,298 8" stroke="#333" fill="none"/><circle cx="182" cy="6" r="1" fill="#777"/><circle cx="41" cy="94" r="1" fill="#777"/><circle cx="70" cy="23" r="1" fill="#222"/><circle cx="189" cy="2" r="1" fill="#222"/><circle cx="266" cy="65" r="1" fill="#555"/><circle cx="251" cy="55" r="1" fill="#777"/><circle cx="247" cy="24" r="1" fill="#888"/><circle cx="192" cy="87" r="1" fill="#888"/><circle cx="116" cy="10" r="1" fill="#333"/><circle cx="90" cy="49" r="1" fill="#444"/><circle cx="168" cy="13" r="1" fill="#333"/><circle cx="182" cy="71" r="1" fill="#777"/><circle cx="198" cy="99" r="1" fill="#777"/><circle cx="218" cy="94" r="1" fill="#222"/><circle cx="145" cy="85" r="1" fill="#444"/><circle cx="294" cy="63" r="1" fill="#222"/><circle cx="280" cy="4" r="1" fill="#333"/><circle cx="27" cy="14" r="1" fill="#777"/><circle cx="264" cy="76" r="1" fill="#444"/><circle cx="81" cy="22" r="1" fill="#555"/><circle cx="158" cy="74" r="1" fill="#555"/><circle cx="37" cy="82" r="1" fill="#333"/><circle cx="277" cy="34" r="1" fill="#777"/><circle cx="80" cy="12" r="1" fill="#222"/><path d="M17 23 C138 57,153 93,299 63" stroke="#555" fill="none"/><path fill="#000000" d="M174.72 27.49L176.29 25.88L179.36 25.88L180.92 27.49L180.92 45.07L199.67 45.07L201.24 46.68L201.24 49.85L199.67 51.46L180.92 51.46L180.92 71.44L179.36 73.05L176.29 73.05L174.72 71.44L174.72 51.46L156.75 51.46L155.19 49.85L155.19 46.68L156.75 45.07L174.72 45.07L174.72 27.49Z"/><circle cx="242" cy="75" r="1" fill="#444"/><circle cx="234" cy="65" r="1" fill="#777"/><circle cx="43" cy="30" r="1" fill="#333"/><circle cx="169" cy="81" r="1" fill="#222"/><circle cx="164" cy="94" r="1" fill="#444"/><circle cx="238" cy="82" r="1" fill="#444"/><circle cx="258" cy="44" r="1" fill="#777"/><circle cx="214" cy="78" r="1" fill="#333"/><circle cx="172" cy="56" r="1" fill="#333"/><circle cx="198" cy="35" r="1" fill="#555"/><circle cx="79" cy="73" r="1" fill="#222"/><circle cx="248" cy="70" r="1" fill="#444"/><circle cx="50" cy="21" r="1" fill="#555"/><circle cx="52" cy="40" r="1" fill="#111"/><circle cx="274" cy="54" r="1" fill="#777"/><path fill="#000000" d="M116.15 15.23L119.13 12.84L122.15 12.84L125.13 15.23L125.13 82.28L122.15 84.67L119.13 84.67L116.15 82.28L116.15 15.23Z"/><circle cx="185" cy="52" r="1" fill="#666"/><circle cx="231" cy="65" r="1" fill="#888"/><circle cx="166" cy="88" r="1" fill="#555"/><circle cx="282" cy="40" r="1" fill="#222"/><circle cx="20" cy="45" r="1" fill="#333"/><circle cx="255" cy="12" r="1" fill="#222"/><circle cx="195" cy="61" r="1" fill="#222"/><circle cx="98" cy="51" r="1" fill="#111"/><circle cx="270" cy="61" r="1" fill="#666"/><circle cx="50" cy="89" r="1" fill="#666"/><circle cx="151" cy="4" r="1" fill="#111"/><circle cx="52" cy="95" r="1" fill="#444"/><circle cx="267" cy="44" r="1" fill="#444"/><circle cx="99" cy="4" r="1" fill="#444"/><circle cx="58" cy="54" r="1" fill="#222"/><circle cx="175" cy="21" r="1" fill="#666"/><circle cx="197" cy="40" r="1" fill="#777"/><circle cx="273" cy="60" r="1" fill="#333"/><circle cx="37" cy="87" r="1" fill="#666"/><circle cx="251" cy="44" r="1" fill="#888"/><circle cx="180" cy="88" r="1" fill="#222"/><circle cx="263" cy="91" r="1" fill="#555"/><circle cx="175" cy="29" r="1" fill="#333"/><circle cx="231" cy="65" r="1" fill="#444"/><circle cx="192" cy="48" r="1" fill="#111"/><circle cx="268" cy="40" r="1" fill="#222"/><circle cx="68" cy="81" r="1" fill="#222"/><circle cx="180" cy="25" r="1" fill="#666"/><path d="M10 99 C161 72,151 96,292 33" stroke="#555" fill="none"/><circle cx="115" cy="38" r="1" fill="#333"/><circle cx="256" cy="3" r="1" fill="#888"/><circle cx="110" cy="89" r="1" fill="#444"/><circle cx="83" cy="30" r="1" fill="#222"/><circle cx="270" cy="57" r="1" fill="#888"/><circle cx="213" cy="57" r="1" fill="#555"/><circle cx="51" cy="28" r="1" fill="#111"/><circle cx="274" cy="27" r="1" fill="#222"/><circle cx="156" cy="32" r="1" fill="#333"/><circle cx="43" cy="69" r="1" fill="#111"/><circle cx="174" cy="56" r="1" fill="#555"/><circle cx="168" cy="38" r="1" fill="#555"/><circle cx="140" cy="3" r="1" fill="#222"/><circle cx="198" cy="73" r="1" fill="#444"/><path fill="#000000" d="M60.72 11.96L64.78 11.96Q74.44 11.96 80.94 20.36L80.94 20.36L80.94 31.54L68.83 46.44Q75.86 46.44 83.97 64.16L83.97 64.16L83.97 72.56Q83.97 78.42 74.88 84.67L74.88 84.67L57.70 84.67Q47.59 84.67 34.45 72.56L34.45 72.56L34.45 65.09Q34.45 53.37 53.64 45.51L53.64 45.51L53.64 43.65Q44.56 39.99 44.56 32.47L44.56 32.47L43.54 25.93L43.54 25Q46.32 17.33 60.72 11.96L60.72 11.96ZM50.62 27.83L50.62 27.83Q50.62 34.72 60.72 41.80L60.72 41.80Q63.80 41.75 73.86 28.76L73.86 28.76L73.86 23.14Q73.86 20.80 64.78 18.51L64.78 18.51Q50.62 23.14 50.62 27.83ZM41.53 67.87L41.53 67.87L41.53 68.80Q48.91 78.13 60.72 78.13L60.72 78.13L71.86 78.13Q74.88 78.13 76.89 69.78L76.89 69.78L76.89 66.94Q76.89 58.25 60.72 50.20L60.72 50.20Q41.53 55.96 41.53 67.87Z"/><circle cx="86" cy="49" r="1" fill="#777"/><circle cx="50" cy="56" r="1" fill="#777"/><circle cx="93" cy="32" r="1" fill="#222"/><path d="M18 17 C150 48,134 90,288 78" stroke="#444" fill="none"/><circle cx="34" cy="38" r="1" fill="#444"/><circle cx="257" cy="96" r="1" fill="#777"/><circle cx="160" cy="13" r="1" fill="#666"/><circle cx="100" cy="87" r="1" fill="#888"/><circle cx="127" cy="72" r="1" fill="#111"/><circle cx="144" cy="27" r="1" fill="#333"/><circle cx="236" cy="71" r="1" fill="#555"/><circle cx="107" cy="84" r="1" fill="#111"/><circle cx="246" cy="36" r="1" fill="#444"/><circle cx="237" cy="53" r="1" fill="#555"/><circle cx="90" cy="64" r="1" fill="#777"/><circle cx="289" cy="22" r="1" fill="#555"/><circle cx="16" cy="89" r="1" fill="#888"/><circle cx="166" cy="82" r="1" fill="#555"/><circle cx="206" cy="30" r="1" fill="#666"/><circle cx="188" cy="9" r="1" fill="#222"/><circle cx="74" cy="1" r="1" fill="#777"/><circle cx="195" cy="75" r="1" fill="#111"/><circle cx="112" cy="88" r="1" fill="#555"/><circle cx="188" cy="92" r="1" fill="#333"/><circle cx="83" cy="3" r="1" fill="#444"/><circle cx="147" cy="15" r="1" fill="#555"/><circle cx="101" cy="92" r="1" fill="#222"/><circle cx="77" cy="71" r="1" fill="#555"/><circle cx="198" cy="12" r="1" fill="#444"/><circle cx="53" cy="76" r="1" fill="#555"/><circle cx="273" cy="23" r="1" fill="#666"/><circle cx="169" cy="13" r="1" fill="#777"/><path d="M12 10 C162 11,164 3,287 95" stroke="#222" fill="none"/><circle cx="147" cy="67" r="1" fill="#444"/><circle cx="259" cy="16" r="1" fill="#444"/><circle cx="197" cy="14" r="1" fill="#777"/><circle cx="287" cy="60" r="1" fill="#666"/><circle cx="229" cy="63" r="1" fill="#444"/><path d="M19 14 C158 46,167 2,289 71" stroke="#555" fill="none"/><circle cx="89" cy="60" r="1" fill="#444"/><circle cx="99" cy="77" r="1" fill="#111"/><circle cx="16" cy="87" r="1" fill="#888"/><circle cx="210" cy="33" r="1" fill="#555"/></svg>